<?xml version="1.0" standalone="no"?>
<svg viewBox="0 0 200 200" xmlns="http://www.w3.org/2000/svg">
  <path fill="#1C1D24" d="M39.4,-66.3C48.4,-55.6,51,-40,55.6,-26.5C60.1,-12.9,66.5,-1.2,65,9.4C63.6,20,54.4,29.6,45.3,38.5C36.3,47.4,27.6,55.7,16.8,60.1C6.1,64.5,-6.6,65,-18.9,62.4C-31.3,59.7,-43.4,53.9,-49.6,44.3C-55.9,34.7,-56.4,21.5,-61.1,7.1C-65.8,-7.3,-74.8,-22.8,-72.5,-35.4C-70.2,-48,-56.8,-57.7,-42.8,-66.1C-28.9,-74.6,-14.4,-81.7,0.4,-82.3C15.2,-82.9,30.4,-77,39.4,-66.3Z" transform="translate(100 100)" />
</svg>
