<?xml version="1.0" standalone="no"?>
<svg viewBox="0 0 200 200" xmlns="http://www.w3.org/2000/svg">
  <path fill="#1C1D24" d="M33.1,-56.7C40.7,-46.5,43.4,-33.8,52.7,-21.7C62,-9.5,77.9,2,81.5,15.2C85,28.5,76.2,43.4,64.4,54.1C52.5,64.7,37.6,71,21.8,76.7C6,82.5,-10.7,87.8,-25.2,84.3C-39.8,80.8,-52.3,68.4,-62.6,55.1C-72.9,41.7,-80.9,27.2,-83.3,11.9C-85.7,-3.5,-82.4,-19.8,-74.8,-33.2C-67.2,-46.5,-55.1,-56.8,-42,-64.5C-28.8,-72.2,-14.4,-77.3,-0.8,-76C12.7,-74.6,25.4,-66.9,33.1,-56.7Z" transform="translate(100 100)" />
</svg>
